<?xml version="1.0" encoding="utf-8"?>
<!-- Generator: Adobe Illustrator 22.0.0, SVG Export Plug-In . SVG Version: 6.00 Build 0)  -->
<svg version="1.1" id="图层_1" xmlns="http://www.w3.org/2000/svg" xmlns:xlink="http://www.w3.org/1999/xlink" x="0px" y="0px"
	 viewBox="0 0 165 28" style="enable-background:new 0 0 165 28;" xml:space="preserve">
<style type="text/css">
	.st0{display:none;}
	.st1{font-family:'Poppins-SemiBold';}
	.st2{font-size:40px;}
	.st3{letter-spacing:1;}
</style>
<text transform="matrix(1.04 0 0 0.96 -2.75 27.25)" class="st0 st1 st2 st3">LILYSILK</text>
<g>
	<path d="M6.1,23.5H16v4.1H0.2V0.5h5.9V23.5z"/>
	<path d="M26.7,0.5v27.1h-5.9V0.5H26.7z"/>
	<path d="M39.2,23.5H49v4.1H33.3V0.5h5.9V23.5z"/>
	<path d="M77.5,0.5l-9.9,17.6v9.5h-5.9v-9.5l-10-17.6h6.7l6.2,11.9l6.2-11.9H77.5z"/>
	<path d="M101.1,24c-0.7,1.2-1.9,2.1-3.3,2.8s-3.3,1.1-5.4,1.1c-2.1,0-3.9-0.3-5.6-1c-1.6-0.7-2.9-1.6-3.9-2.8
		c-1-1.2-1.5-2.7-1.7-4.3h6.2c0.1,1.1,0.6,2,1.4,2.7c0.8,0.7,1.9,1.1,3.3,1.1c1.2,0,2.2-0.3,2.8-0.9c0.7-0.6,1-1.4,1-2.3
		c0-0.8-0.3-1.5-0.8-2.1c-0.5-0.5-1.2-1-2-1.3c-0.8-0.3-1.9-0.7-3.3-1.2c-1.8-0.6-3.3-1.1-4.5-1.7c-1.2-0.6-2.2-1.4-3-2.4
		c-0.8-1-1.2-2.4-1.2-4.1c0-2.3,0.9-4.2,2.7-5.5c1.8-1.3,4.2-2,7.2-2c3.1,0,5.6,0.7,7.4,2.1c1.8,1.4,2.9,3.2,3.1,5.5h-6.3
		c-0.2-1-0.6-1.8-1.3-2.4c-0.7-0.6-1.7-0.9-3-0.9c-1.1,0-2,0.3-2.6,0.8c-0.7,0.5-1,1.3-1,2.3c0,0.8,0.3,1.5,0.8,2
		c0.5,0.5,1.2,1,2,1.3c0.8,0.3,1.9,0.7,3.2,1.1c1.9,0.6,3.4,1.2,4.6,1.7s2.2,1.3,3,2.4c0.8,1.1,1.2,2.5,1.2,4.2
		C102.2,21.6,101.8,22.9,101.1,24z"/>
	<path d="M113.7,0.5v27.1h-5.9V0.5H113.7z"/>
	<path d="M126.2,23.5h9.9v4.1h-15.7V0.5h5.9V23.5z"/>
	<path d="M152.3,13.8l12.4,13.8h-7.1l-10.9-12.4v12.4h-5.9V0.5h5.9v12.2l10.9-12.2h7.1L152.3,13.8z"/>
</g>
</svg>
